# xmcd
#
# Track frame offsets: 
#        150
#        29592
#        45175
#        55261
#        87053
#        107642
#        127416
#        147648
#
# Disc length: 2319 seconds
#
# Revision: 1
# Processed by: cddbd v1.5.2PL0 Copyright (c) Steve Scherf et al.
# Submitted via: ExactAudioCopy v1.0b3
#
DISCID=6f090d08
DTITLE=Hot Tuna - Double Dose CD1
DYEAR=1978
DGENRE=Blues
TTITLE0=Winin' Boy Blues
TTITLE1=Keep Your Lamps Trimmed And Burning
TTITLE2=Embryonic Journey
TTITLE3=Killing Time In The Crystal City
TTITLE4=I Wish You Would
TTITLE5=Genesis
TTITLE6=Extrication Love Song
TTITLE7=Talking 'Bout You
EXTD=
EXTT0=
EXTT1=
EXTT2=
EXTT3=
EXTT4=
EXTT5=
EXTT6=
EXTT7=
PLAYORDER=
